<svg width="100" height="100" viewBox="0 0 100 100" fill="none" xmlns="http://www.w3.org/2000/svg">
    <path fill="#000" d="M20.43,89.29c-4.12,0-7.34-1.14-9.58-3.4s-3.37-5.51-3.37-9.68a46.5,46.5,0,0,1,.41-5.79l1-7.48A26.33,26.33,0,0,0,9,59.76C9,53.73,6,53,3.68,53H.1V44.82H3.68C6,44.82,9,44.13,9,38.14A26.62,26.62,0,0,0,8.85,35l-1-7.46a46.78,46.78,0,0,1-.41-5.8c0-8.56,4.48-13.08,13-13.08h4.1v8.21H21.28c-2.55,0-4.33.43-5.29,1.28s-1.4,2.35-1.4,4.56a36.1,36.1,0,0,0,.27,3.75l.62,5.84a46.59,46.59,0,0,1,.33,5c0,5.56-1.55,9.49-4.62,11.72,3.07,2.25,4.62,6.23,4.62,11.87a46.21,46.21,0,0,1-.31,4.84l-.64,5.8a37.28,37.28,0,0,0-.27,3.79c0,2.21.47,3.74,1.39,4.56s2.75,1.28,5.3,1.28h3.25v8.21Z"/>
    <path fill="#000" d="M75.47,89.29V81.08h3.21c2.57,0,4.35-.43,5.31-1.28s1.39-2.35,1.39-4.56a35.25,35.25,0,0,0-.28-3.79l-.65-5.79a44.93,44.93,0,0,1-.35-5c0-5.56,1.57-9.5,4.67-11.75-3.1-2.22-4.67-6.17-4.67-11.75a44.77,44.77,0,0,1,.35-4.94l.65-5.83a34.15,34.15,0,0,0,.28-3.75c0-2.21-.47-3.74-1.4-4.56s-2.75-1.28-5.3-1.28H75.47V8.61h4.07c4.14,0,7.37,1.14,9.6,3.4s3.35,5.51,3.35,9.68a46.76,46.76,0,0,1-.41,5.79L91.15,35a23,23,0,0,0-.22,3.19c0,6,3.07,6.68,5.39,6.68H99.9V53H96.32c-2.32,0-5.39.69-5.39,6.72a22.77,22.77,0,0,0,.22,3.18l.93,7.48a46,46,0,0,1,.41,5.79c0,8.56-4.48,13.08-12.95,13.08Z"/>
    <polygon fill="#000" points="60.66 76.14 38.97 41.67 38.97 76.14 30.68 76.14 30.68 23.86 39.53 23.86 61.03 57.94 61.03 23.86 69.32 23.86 69.32 76.14 60.66 76.14"/>
</svg>