<svg xmlns="http://www.w3.org/2000/svg" xmlns:xlink="http://www.w3.org/1999/xlink" viewBox="0 0 110 110"><defs><linearGradient id="a" x1="3.14" y1="2.72" x2="106.86" y2="107.28" gradientUnits="userSpaceOnUse"><stop offset="0" stop-color="#547bb5"/><stop offset="1" stop-color="#003582"/></linearGradient><linearGradient id="b" x1="23.72" y1="27.24" x2="61.85" y2="65.64" gradientUnits="userSpaceOnUse"><stop offset="0" stop-color="#fff" stop-opacity="0.2"/><stop offset="1" stop-color="#fff" stop-opacity="0"/></linearGradient><linearGradient id="c" x1="69.21" y1="70.93" x2="107.34" y2="109.33" xlink:href="#b"/></defs><title>nodestrap-outlined</title><g style="isolation:isolate"><rect width="110" height="110" rx="10" fill="url(#a)"/><path d="M25.43,94.29c-4.12,0-7.34-1.14-9.58-3.4s-3.37-5.51-3.37-9.68a46.5,46.5,0,0,1,.41-5.79l1-7.48A26.33,26.33,0,0,0,14,64.76C14,58.73,11,58,8.68,58H5.1V49.82H8.68c2.3,0,5.36-.69,5.36-6.68A26.62,26.62,0,0,0,13.85,40l-1-7.46a46.78,46.78,0,0,1-.41-5.8c0-8.56,4.48-13.08,13-13.08h4.1v8.21H26.28c-2.55,0-4.33.43-5.29,1.28s-1.4,2.35-1.4,4.56a36.1,36.1,0,0,0,.27,3.75l.62,5.84a46.59,46.59,0,0,1,.33,5c0,5.56-1.55,9.49-4.62,11.72,3.07,2.25,4.62,6.23,4.62,11.87a46.21,46.21,0,0,1-.31,4.84l-.64,5.8a37.28,37.28,0,0,0-.27,3.79c0,2.21.47,3.74,1.39,4.56s2.75,1.28,5.3,1.28h3.25v8.21Z" fill="#d4d4d4"/><path d="M80.47,94.29V86.08h3.21c2.57,0,4.35-.43,5.31-1.28s1.39-2.35,1.39-4.56a35.25,35.25,0,0,0-.28-3.79l-.65-5.79a44.93,44.93,0,0,1-.35-5c0-5.56,1.57-9.5,4.67-11.75-3.1-2.22-4.67-6.17-4.67-11.75a44.77,44.77,0,0,1,.35-4.94l.65-5.83a34.15,34.15,0,0,0,.28-3.75c0-2.21-.47-3.74-1.4-4.56s-2.75-1.28-5.3-1.28H80.47V13.61h4.07c4.14,0,7.37,1.14,9.6,3.4s3.35,5.51,3.35,9.68a46.76,46.76,0,0,1-.41,5.79L96.15,40a23,23,0,0,0-.22,3.19c0,6,3.07,6.68,5.39,6.68h3.58V58h-3.58c-2.32,0-5.39.69-5.39,6.72a22.77,22.77,0,0,0,.22,3.18l.93,7.48a46,46,0,0,1,.41,5.79c0,8.56-4.48,13.08-12.95,13.08Z" fill="#d4d4d4"/><polygon points="65.66 81.14 43.97 46.67 43.97 81.14 35.68 81.14 35.68 28.86 44.53 28.86 66.03 62.94 66.03 28.86 74.32 28.86 74.32 81.14 65.66 81.14" fill="#d4d4d4"/><g style="mix-blend-mode:screen"><polygon points="97.86 -43.69 -55.69 106.1 -14.31 141.28 137.14 -17.38 97.86 -43.69" fill="url(#b)"/><polygon points="143.35 0 -10.2 149.79 31.18 184.97 182.62 26.31 143.35 0" fill="url(#c)"/></g></g></svg>